<mxfile host="app.diagrams.net" agent="Mozilla/5.0 (Windows NT 10.0; Win64; x64) AppleWebKit/537.36 (KHTML, like Gecko) Chrome/140.0.0.0 Safari/537.36" version="28.2.4">
  <diagram name="PÃ¡gina-1" id="KU0HDp57aq02AGE5__Ep">
    <mxGraphModel dx="1042" dy="562" grid="1" gridSize="10" guides="1" tooltips="1" connect="1" arrows="1" fold="1" page="1" pageScale="1" pageWidth="827" pageHeight="1169" math="0" shadow="0">
      <root>
        <mxCell id="0" />
        <mxCell id="1" parent="0" />
        <mxCell id="GKoUtF33VKL4G79wXgIQ-37" value="carrega informacoes da UEg para UEv" style="edgeStyle=orthogonalEdgeStyle;rounded=0;orthogonalLoop=1;jettySize=auto;html=1;exitX=0.552;exitY=1.095;exitDx=0;exitDy=0;exitPerimeter=0;" edge="1" parent="1" source="GKoUtF33VKL4G79wXgIQ-40" target="GKoUtF33VKL4G79wXgIQ-35">
          <mxGeometry relative="1" as="geometry" />
        </mxCell>
        <mxCell id="GKoUtF33VKL4G79wXgIQ-41" value="Cadastra as UEvs dentro das UEg" style="edgeStyle=orthogonalEdgeStyle;rounded=0;orthogonalLoop=1;jettySize=auto;html=1;" edge="1" parent="1" source="ZVlS2FAQnzIIBZlbNNBE-4" target="GKoUtF33VKL4G79wXgIQ-38">
          <mxGeometry relative="1" as="geometry" />
        </mxCell>
        <mxCell id="ZVlS2FAQnzIIBZlbNNBE-4" value="" style="ellipse;html=1;shape=startState;fillColor=#000000;strokeColor=#ff0000;" parent="1" vertex="1">
          <mxGeometry x="200" y="20" width="30" height="30" as="geometry" />
        </mxCell>
        <mxCell id="GKoUtF33VKL4G79wXgIQ-35" value="Carregando dados para UEv" style="swimlane;childLayout=stackLayout;horizontal=1;startSize=30;horizontalStack=0;rounded=1;fontSize=14;fontStyle=0;strokeWidth=2;resizeParent=0;resizeLast=1;shadow=0;dashed=0;align=center;arcSize=4;whiteSpace=wrap;html=1;" vertex="1" parent="1">
          <mxGeometry x="414" y="250" width="205" height="70" as="geometry">
            <mxRectangle x="85" y="200" width="140" height="50" as="alternateBounds" />
          </mxGeometry>
        </mxCell>
        <mxCell id="GKoUtF33VKL4G79wXgIQ-36" value="&lt;font style=&quot;font-size: 13px;&quot;&gt;&lt;span style=&quot;background-color: rgb(255, 255, 255); color: rgb(19, 19, 0);&quot;&gt;do/carregarUEvs()&lt;/span&gt;&lt;/font&gt;" style="text;html=1;align=center;verticalAlign=middle;resizable=0;points=[];autosize=1;strokeColor=none;fillColor=none;" vertex="1" parent="GKoUtF33VKL4G79wXgIQ-35">
          <mxGeometry y="30" width="205" height="40" as="geometry" />
        </mxCell>
        <mxCell id="GKoUtF33VKL4G79wXgIQ-38" value="Cadastrando as UEvs" style="swimlane;childLayout=stackLayout;horizontal=1;startSize=30;horizontalStack=0;rounded=1;fontSize=14;fontStyle=0;strokeWidth=2;resizeParent=0;resizeLast=1;shadow=0;dashed=0;align=center;arcSize=4;whiteSpace=wrap;html=1;" vertex="1" parent="1">
          <mxGeometry x="400" y="80" width="205" height="70" as="geometry">
            <mxRectangle x="85" y="200" width="140" height="50" as="alternateBounds" />
          </mxGeometry>
        </mxCell>
        <mxCell id="GKoUtF33VKL4G79wXgIQ-40" value="&lt;font style=&quot;font-size: 13px;&quot;&gt;&lt;span style=&quot;background-color: rgb(255, 255, 255); color: rgb(19, 19, 0);&quot;&gt;do/cadastrarUEv()&lt;/span&gt;&lt;/font&gt;" style="text;html=1;align=center;verticalAlign=middle;resizable=0;points=[];autosize=1;strokeColor=none;fillColor=none;" vertex="1" parent="GKoUtF33VKL4G79wXgIQ-38">
          <mxGeometry y="30" width="205" height="40" as="geometry" />
        </mxCell>
        <mxCell id="GKoUtF33VKL4G79wXgIQ-42" value="Carregando dados para UEv" style="swimlane;childLayout=stackLayout;horizontal=1;startSize=30;horizontalStack=0;rounded=1;fontSize=14;fontStyle=0;strokeWidth=2;resizeParent=0;resizeLast=1;shadow=0;dashed=0;align=center;arcSize=4;whiteSpace=wrap;html=1;" vertex="1" parent="1">
          <mxGeometry x="150" y="400" width="205" height="70" as="geometry">
            <mxRectangle x="85" y="200" width="140" height="50" as="alternateBounds" />
          </mxGeometry>
        </mxCell>
        <mxCell id="GKoUtF33VKL4G79wXgIQ-43" value="&lt;font style=&quot;font-size: 13px;&quot;&gt;&lt;span style=&quot;background-color: rgb(255, 255, 255); color: rgb(19, 19, 0);&quot;&gt;do/carregarUEvs()&lt;/span&gt;&lt;/font&gt;" style="text;html=1;align=center;verticalAlign=middle;resizable=0;points=[];autosize=1;strokeColor=none;fillColor=none;" vertex="1" parent="GKoUtF33VKL4G79wXgIQ-42">
          <mxGeometry y="30" width="205" height="40" as="geometry" />
        </mxCell>
        <mxCell id="GKoUtF33VKL4G79wXgIQ-47" value="" style="ellipse;html=1;shape=endState;fillColor=#000000;strokeColor=#ff0000;" vertex="1" parent="GKoUtF33VKL4G79wXgIQ-42">
          <mxGeometry y="70" width="205" as="geometry" />
        </mxCell>
        <mxCell id="GKoUtF33VKL4G79wXgIQ-44" value="Carregando dados para UEv" style="swimlane;childLayout=stackLayout;horizontal=1;startSize=30;horizontalStack=0;rounded=1;fontSize=14;fontStyle=0;strokeWidth=2;resizeParent=0;resizeLast=1;shadow=0;dashed=0;align=center;arcSize=4;whiteSpace=wrap;html=1;" vertex="1" parent="1">
          <mxGeometry x="520" y="400" width="205" height="70" as="geometry">
            <mxRectangle x="85" y="200" width="140" height="50" as="alternateBounds" />
          </mxGeometry>
        </mxCell>
        <mxCell id="GKoUtF33VKL4G79wXgIQ-45" value="&lt;font style=&quot;font-size: 13px;&quot;&gt;&lt;span style=&quot;background-color: rgb(255, 255, 255); color: rgb(19, 19, 0);&quot;&gt;do/carregarUEvs()&lt;/span&gt;&lt;/font&gt;" style="text;html=1;align=center;verticalAlign=middle;resizable=0;points=[];autosize=1;strokeColor=none;fillColor=none;" vertex="1" parent="GKoUtF33VKL4G79wXgIQ-44">
          <mxGeometry y="30" width="205" height="40" as="geometry" />
        </mxCell>
        <mxCell id="GKoUtF33VKL4G79wXgIQ-50" style="edgeStyle=orthogonalEdgeStyle;rounded=0;orthogonalLoop=1;jettySize=auto;html=1;exitX=0;exitY=0.5;exitDx=0;exitDy=0;" edge="1" parent="1" source="GKoUtF33VKL4G79wXgIQ-48">
          <mxGeometry relative="1" as="geometry">
            <mxPoint x="210" y="550" as="targetPoint" />
          </mxGeometry>
        </mxCell>
        <mxCell id="GKoUtF33VKL4G79wXgIQ-48" value="" style="ellipse;html=1;shape=endState;fillColor=none;strokeColor=default;" vertex="1" parent="1">
          <mxGeometry x="120" y="590" width="30" height="30" as="geometry" />
        </mxCell>
      </root>
    </mxGraphModel>
  </diagram>
</mxfile>
